<svg xmlns="http://www.w3.org/2000/svg" xmlns:xlink="http://www.w3.org/1999/xlink" viewBox="0 0 288 279.71">
  <defs>
    <style>
      .a {
        fill: none;
      }

      .b {
        isolation: isolate;
      }

      .c {
        clip-path: url(#a);
      }

      .d {
        mix-blend-mode: multiply;
      }

      .e {
        fill: url(#b);
      }

      .f {
        fill: url(#c);
      }

      .g {
        fill: url(#d);
      }

      .h {
        fill: url(#e);
      }

      .i {
        fill: url(#f);
      }

      .j {
        fill: url(#g);
      }

      .k {
        fill: url(#h);
      }

      .l {
        fill: url(#i);
      }

      .m {
        fill: url(#j);
      }

      .n {
        fill: url(#k);
      }

      .o {
        fill: url(#l);
      }

      .p {
        fill: url(#m);
      }

      .q {
        fill: url(#n);
      }

      .r {
        fill: url(#o);
      }

      .s {
        fill: url(#p);
      }

      .t {
        fill: url(#q);
      }

      .u {
        fill: url(#r);
      }

      .v {
        fill: url(#s);
      }

      .w {
        fill: url(#t);
      }

      .x {
        fill: url(#u);
      }

      .y {
        fill: url(#v);
      }

      .z {
        fill: url(#w);
      }

      .aa {
        fill: url(#x);
      }

      .ab {
        fill: url(#y);
      }

      .ac {
        fill: url(#z);
      }

      .ad {
        fill: url(#aa);
      }

      .ae {
        fill: url(#ab);
      }

      .af {
        fill: url(#ac);
      }

      .ag {
        fill: url(#ad);
      }

      .ah {
        fill: url(#ae);
      }

      .ai {
        fill: url(#af);
      }

      .aj {
        fill: url(#ag);
      }

      .ak {
        fill: url(#ah);
      }

      .al {
        fill: url(#ai);
      }

      .am {
        fill: url(#aj);
      }

      .an {
        fill: url(#ak);
      }

      .ao {
        fill: url(#al);
      }

      .ap {
        fill: url(#am);
      }

      .aq {
        fill: url(#an);
      }

      .ar {
        fill: url(#ao);
      }

      .as {
        fill: url(#ap);
      }

      .at {
        fill: url(#aq);
      }

      .au {
        fill: url(#ar);
      }

      .av {
        fill: url(#as);
      }

      .aw {
        fill: url(#at);
      }

      .ax {
        fill: url(#au);
      }

      .ay {
        fill: url(#av);
      }

      .az {
        fill: url(#aw);
      }

      .ba {
        fill: url(#ax);
      }

      .bb {
        fill: url(#ay);
      }

      .bc {
        fill: url(#az);
      }

      .bd {
        fill: url(#ba);
      }

      .be {
        fill: url(#bb);
      }

      .bf {
        fill: url(#bc);
      }

      .bg {
        fill: url(#bd);
      }
    </style>
    <clipPath id="a" transform="translate(0 0.27)">
      <rect class="a" width="288" height="288"/>
    </clipPath>
    <linearGradient id="b" x1="-1301.23" y1="1565.94" x2="-1299.7" y2="1564.42" gradientTransform="matrix(-39.21, 19.97, 11.35, 22.28, -68591.38, -8821.66)" gradientUnits="userSpaceOnUse">
      <stop offset="0" stop-color="#b2b2b2"/>
      <stop offset="1" stop-color="#b2b2b2"/>
    </linearGradient>
    <linearGradient id="c" x1="-1298.33" y1="1536.23" x2="-1296.82" y2="1534.72" gradientTransform="matrix(-63.27, 32.22, 4.54, 8.91, -89006.21, 28233.5)" gradientUnits="userSpaceOnUse">
      <stop offset="0" stop-color="#bcbcbc"/>
      <stop offset="1" stop-color="#b6b6b6"/>
    </linearGradient>
    <linearGradient id="d" x1="-1302.76" y1="1573.28" x2="-1301.23" y2="1571.75" gradientTransform="matrix(-25.84, 13.16, 19.06, 37.43, -63580.55, -41598.29)" gradientUnits="userSpaceOnUse">
      <stop offset="0" stop-color="#b2b2b2"/>
      <stop offset="1" stop-color="#afafaf"/>
    </linearGradient>
    <linearGradient id="e" x1="-1299.96" y1="1575.75" x2="-1298.43" y2="1574.22" gradientTransform="matrix(-47.23, 24.05, 30.86, 60.59, -109980.07, -64139.82)" gradientUnits="userSpaceOnUse">
      <stop offset="0" stop-color="#dadada"/>
      <stop offset="1" stop-color="#d4d4d4"/>
    </linearGradient>
    <linearGradient id="f" x1="-1303.94" y1="1572.64" x2="-1302.42" y2="1571.11" gradientTransform="matrix(-25.84, 13.16, 21.78, 42.77, -67880.95, -50026.76)" gradientUnits="userSpaceOnUse">
      <stop offset="0" stop-color="#c6c6c6"/>
      <stop offset="1" stop-color="#ebebeb"/>
    </linearGradient>
    <linearGradient id="g" x1="-1299.53" y1="1569.08" x2="-1298" y2="1567.55" gradientTransform="matrix(-55.25, 28.14, 19.06, 37.43, -101656.59, -22131.89)" gradientUnits="userSpaceOnUse">
      <stop offset="0" stop-color="#cecece"/>
      <stop offset="1" stop-color="#ccc"/>
    </linearGradient>
    <linearGradient id="h" x1="-1299.53" y1="1567.33" x2="-1298.41" y2="1566.21" gradientTransform="matrix(-55.25, 28.14, 17.7, 34.75, -99489.15, -17877.05)" gradientUnits="userSpaceOnUse">
      <stop offset="0" stop-color="#e5e5e5"/>
      <stop offset="1" stop-color="#f2f2f2"/>
    </linearGradient>
    <linearGradient id="i" x1="-1354.56" y1="1559.73" x2="-1353.02" y2="1558.19" gradientTransform="matrix(-4.46, 2.27, 8.62, 16.93, -19268.51, -23274.49)" gradientUnits="userSpaceOnUse">
      <stop offset="0" stop-color="#ebebeb"/>
      <stop offset="1" stop-color="#d8d8d8"/>
    </linearGradient>
    <linearGradient id="j" x1="-1301.17" y1="1560.48" x2="-1299.65" y2="1558.96" gradientTransform="matrix(-43.66, 22.24, 9.08, 17.82, -70761.22, 1171.88)" gradientUnits="userSpaceOnUse">
      <stop offset="0" stop-color="#c4c4c4"/>
      <stop offset="1" stop-color="#dadada"/>
    </linearGradient>
    <linearGradient id="k" x1="-1297.17" y1="1503.08" x2="-1295.7" y2="1501.61" gradientTransform="matrix(-106.93, 54.46, 2.72, 5.35, -142632.29, 62654.34)" gradientUnits="userSpaceOnUse">
      <stop offset="0" stop-color="silver"/>
      <stop offset="1" stop-color="#d0d0d0"/>
    </linearGradient>
    <linearGradient id="l" x1="-1302.48" y1="1525.38" x2="-1300.96" y2="1523.87" gradientTransform="matrix(-37.43, 19.06, 3.63, 7.13, -54019.61, 13990.38)" gradientUnits="userSpaceOnUse">
      <stop offset="0" stop-color="#eee"/>
      <stop offset="1" stop-color="#ddd"/>
    </linearGradient>
    <linearGradient id="m" x1="-1312.51" y1="1572.97" x2="-1310.98" y2="1571.44" gradientTransform="matrix(-16.93, 8.62, 17.25, 33.86, -49022.46, -41873.12)" gradientUnits="userSpaceOnUse">
      <stop offset="0" stop-color="#e8e8e8"/>
      <stop offset="1" stop-color="#d7d7d7"/>
    </linearGradient>
    <linearGradient id="n" x1="-1306.66" y1="1545.11" x2="-1305.13" y2="1543.59" gradientTransform="matrix(-24.06, 12.25, 5.45, 10.69, -39600.64, -476.8)" gradientUnits="userSpaceOnUse">
      <stop offset="0" stop-color="#f3f3f3"/>
      <stop offset="1" stop-color="#f2f2f2"/>
    </linearGradient>
    <linearGradient id="o" x1="-1303.72" y1="1553.03" x2="-1302.2" y2="1551.5" gradientTransform="matrix(-33.86, 17.25, 6.81, 13.37, -54438.07, 1752.98)" gradientUnits="userSpaceOnUse">
      <stop offset="0" stop-color="#f6f6f6"/>
      <stop offset="1" stop-color="#f2f2f2"/>
    </linearGradient>
    <linearGradient id="p" x1="-1307.77" y1="1553.53" x2="-1306.24" y2="1552" gradientTransform="matrix(-24.06, 12.25, 6.81, 13.37, -41730.48, -4718.95)" gradientUnits="userSpaceOnUse">
      <stop offset="0" stop-color="#f6f6f6"/>
      <stop offset="1" stop-color="#f7f7f7"/>
    </linearGradient>
    <linearGradient id="q" x1="-1299.84" y1="1573.56" x2="-1298.31" y2="1572.03" gradientTransform="matrix(-38.32, 19.51, 19.06, 37.43, -79743.83, -33366.54)" gradientUnits="userSpaceOnUse">
      <stop offset="0" stop-color="#aaa"/>
      <stop offset="1" stop-color="#c1c1c1"/>
    </linearGradient>
    <linearGradient id="r" x1="-1300.7" y1="1565.87" x2="-1299.17" y2="1564.34" gradientTransform="matrix(-38.32, 19.51, 13.16, 25.84, -70381.3, -14983.75)" gradientUnits="userSpaceOnUse">
      <stop offset="0" stop-color="#a8a8a8"/>
      <stop offset="1" stop-color="#d3d3d3"/>
    </linearGradient>
    <linearGradient id="s" x1="-1299.23" y1="1566.05" x2="-1297.7" y2="1564.52" gradientTransform="matrix(-46.34, 23.6, 13.16, 25.84, -80792.43, -9681.82)" gradientUnits="userSpaceOnUse">
      <stop offset="0" stop-color="#e0e0e0"/>
      <stop offset="1" stop-color="#cecece"/>
    </linearGradient>
    <linearGradient id="t" x1="-1304.78" y1="1574.92" x2="-1303.25" y2="1573.39" gradientTransform="matrix(-23.17, 11.8, 21.33, 41.88, -63665.76, -50437.69)" gradientUnits="userSpaceOnUse">
      <stop offset="0" stop-color="#b2b2b2"/>
      <stop offset="1" stop-color="#d0d0d0"/>
    </linearGradient>
    <linearGradient id="u" x1="-1298.65" y1="1572.65" x2="-1297.47" y2="1571.47" gradientTransform="matrix(-62.38, 31.77, 20.42, 40.1, -112988.5, -21710.21)" gradientUnits="userSpaceOnUse">
      <stop offset="0" stop-color="#f6f6f6"/>
      <stop offset="1" stop-color="#e7e7e7"/>
    </linearGradient>
    <linearGradient id="v" x1="-1301.16" y1="1574.51" x2="-1299.64" y2="1572.98" gradientTransform="matrix(-37.43, 19.06, 21.33, 41.88, -82137.16, -41031.19)" gradientUnits="userSpaceOnUse">
      <stop offset="0" stop-color="#c3c3c3"/>
      <stop offset="1" stop-color="#cbcbcb"/>
    </linearGradient>
    <linearGradient id="w" x1="-1302.08" y1="1573.54" x2="-1300.55" y2="1572.02" gradientTransform="matrix(-29.41, 14.98, 19.06, 37.43, -68169.78, -39249.72)" gradientUnits="userSpaceOnUse">
      <stop offset="0" stop-color="#b7b7b7"/>
      <stop offset="1" stop-color="#c3c3c3"/>
    </linearGradient>
    <linearGradient id="x" x1="-1299.92" y1="1573.47" x2="-1298.39" y2="1571.94" gradientTransform="matrix(-47.23, 24.05, 21.78, 42.77, -95547, -35937.27)" gradientUnits="userSpaceOnUse">
      <stop offset="0" stop-color="#c3c3c3"/>
      <stop offset="1" stop-color="#e6e6e6"/>
    </linearGradient>
    <linearGradient id="y" x1="-1303.48" y1="1574.27" x2="-1301.95" y2="1572.74" gradientTransform="matrix(-31.19, 15.88, 20.88, 40.99, -73291.8, -43735.56)" gradientUnits="userSpaceOnUse">
      <stop offset="0" stop-color="#b4b4b4"/>
      <stop offset="1" stop-color="#c6c6c6"/>
    </linearGradient>
    <linearGradient id="z" x1="-1300.17" y1="1573.08" x2="-1298.64" y2="1571.55" gradientTransform="matrix(-48.12, 24.51, 18.61, 36.53, -91627.04, -25503.2)" gradientUnits="userSpaceOnUse">
      <stop offset="0" stop-color="#acacac"/>
      <stop offset="1" stop-color="#dfdfdf"/>
    </linearGradient>
    <linearGradient id="aa" x1="-1300.47" y1="1573.81" x2="-1298.94" y2="1572.28" gradientTransform="matrix(-48.12, 24.51, 20.42, 40.1, -94492.21, -31129.42)" gradientUnits="userSpaceOnUse">
      <stop offset="0" stop-color="#f7f7f7"/>
      <stop offset="1" stop-color="#f3f3f3"/>
    </linearGradient>
    <linearGradient id="ab" x1="-1299.11" y1="1560.57" x2="-1297.86" y2="1559.32" gradientTransform="matrix(-62.38, 31.77, 11.35, 22.28, -98594.63, 6553.57)" gradientUnits="userSpaceOnUse">
      <stop offset="0" stop-color="#f7f7f7"/>
      <stop offset="1" stop-color="#ebebeb"/>
    </linearGradient>
    <linearGradient id="ac" x1="-1300.39" y1="1567.78" x2="-1298.25" y2="1565.65" gradientTransform="matrix(-48.12, 24.51, 17.7, 34.75, -90254.45, -22579.54)" gradientUnits="userSpaceOnUse">
      <stop offset="0" stop-color="#e6e6e6"/>
      <stop offset="1" stop-color="#f6f6f6"/>
    </linearGradient>
    <linearGradient id="ad" x1="-1307.19" y1="1576.69" x2="-1305.67" y2="1575.17" gradientTransform="matrix(-23.17, 11.8, 24.51, 48.12, -68610.88, -60338.13)" gradientUnits="userSpaceOnUse">
      <stop offset="0" stop-color="#b9b9b9"/>
      <stop offset="1" stop-color="#e3e3e3"/>
    </linearGradient>
    <linearGradient id="ae" x1="-1302.74" y1="1576.35" x2="-1301.21" y2="1574.82" gradientTransform="matrix(-37.43, 19.06, 24.96, 49.01, -87801.72, -52344)" gradientUnits="userSpaceOnUse">
      <stop offset="0" stop-color="#d1d1d1"/>
      <stop offset="1" stop-color="#c6c6c6"/>
    </linearGradient>
    <linearGradient id="af" x1="-1295.59" y1="1581.9" x2="-1294.03" y2="1580.34" gradientTransform="matrix(-63.64, -6.78, -3.49, 32.81, -76680.8, -60592.28)" xlink:href="#ae"/>
    <linearGradient id="ag" x1="-1295.41" y1="1582.29" x2="-1293.86" y2="1580.74" gradientTransform="matrix(-35.8, -3.81, -3.92, 36.79, -39984.28, -63031.95)" gradientUnits="userSpaceOnUse">
      <stop offset="0" stop-color="#c8c8c8"/>
      <stop offset="1" stop-color="#bababa"/>
    </linearGradient>
    <linearGradient id="ah" x1="-1295.12" y1="1583.87" x2="-1293.55" y2="1582.3" gradientTransform="matrix(-66.62, -7.09, -6.04, 56.68, -76514.65, -98838.74)" gradientUnits="userSpaceOnUse">
      <stop offset="0" stop-color="#dfdfdf"/>
      <stop offset="1" stop-color="#e2e2e2"/>
    </linearGradient>
    <linearGradient id="ai" x1="-1294.83" y1="1582.89" x2="-1293.26" y2="1581.32" gradientTransform="matrix(-14.92, -1.59, -3.92, 36.79, -12974.27, -60155.8)" gradientUnits="userSpaceOnUse">
      <stop offset="0" stop-color="#aeaeae"/>
      <stop offset="1" stop-color="#d0d0d0"/>
    </linearGradient>
    <linearGradient id="aj" x1="-1294.78" y1="1583.47" x2="-1293.2" y2="1581.89" gradientTransform="matrix(-46.74, -4.98, -3.71, 34.8, -54518.05, -61380.94)" gradientUnits="userSpaceOnUse">
      <stop offset="0" stop-color="#919191"/>
      <stop offset="1" stop-color="#c6c6c6"/>
    </linearGradient>
    <linearGradient id="ak" x1="-1294.47" y1="1583.95" x2="-1292.9" y2="1582.38" gradientTransform="matrix(-34.8, -3.71, -3.07, 28.84, -40118.2, -50254.01)" gradientUnits="userSpaceOnUse">
      <stop offset="0" stop-color="#d8d8d8"/>
      <stop offset="1" stop-color="#e0e0e0"/>
    </linearGradient>
    <linearGradient id="al" x1="-1294.24" y1="1584.54" x2="-1292.68" y2="1582.98" gradientTransform="matrix(-34.8, -3.71, -4.13, 38.78, -38441.66, -65996.64)" gradientUnits="userSpaceOnUse">
      <stop offset="0" stop-color="#dedede"/>
      <stop offset="1" stop-color="#dedede"/>
    </linearGradient>
    <linearGradient id="am" x1="-1293.23" y1="1585.18" x2="-1291.66" y2="1583.61" gradientTransform="matrix(-21.88, -2.33, -6.46, 60.66, -18029.08, -98868.14)" gradientUnits="userSpaceOnUse">
      <stop offset="0" stop-color="#dbdbdb"/>
      <stop offset="1" stop-color="#e6e6e6"/>
    </linearGradient>
    <linearGradient id="an" x1="-1294.87" y1="1584.37" x2="-1293.28" y2="1582.78" gradientTransform="matrix(-69.61, -7.41, -5.4, 50.71, -81464.61, -89753.55)" gradientUnits="userSpaceOnUse">
      <stop offset="0" stop-color="#c6c6c6"/>
      <stop offset="1" stop-color="#c6c6c6"/>
    </linearGradient>
    <linearGradient id="ao" x1="-1293.86" y1="1585.01" x2="-1292.29" y2="1583.44" gradientTransform="matrix(-37.79, -4.02, -6.35, 59.66, -38780.37, -99544.82)" gradientUnits="userSpaceOnUse">
      <stop offset="0" stop-color="#e0e0e0"/>
      <stop offset="1" stop-color="#e0e0e0"/>
    </linearGradient>
    <linearGradient id="ap" x1="-1288.25" y1="1585.04" x2="-1286.65" y2="1583.44" gradientTransform="matrix(-6.96, -0.74, -12.81, 120.32, 11340.27, -191377.58)" gradientUnits="userSpaceOnUse">
      <stop offset="0" stop-color="#eaeaea"/>
      <stop offset="1" stop-color="#ddd"/>
    </linearGradient>
    <linearGradient id="aq" x1="-1295.06" y1="1584.1" x2="-1293.5" y2="1582.53" gradientTransform="matrix(-76.57, -8.15, -6.04, 56.68, -89455.55, -100217.5)" gradientUnits="userSpaceOnUse">
      <stop offset="0" stop-color="#dfdfdf"/>
      <stop offset="1" stop-color="#f6f6f6"/>
    </linearGradient>
    <linearGradient id="ar" x1="-1294.85" y1="1584.32" x2="-1293.28" y2="1582.74" gradientTransform="matrix(-76.57, -8.15, -5.61, 52.7, -90128.93, -93900.19)" gradientUnits="userSpaceOnUse">
      <stop offset="0" stop-color="#d4d4d4"/>
      <stop offset="1" stop-color="#e7e7e7"/>
    </linearGradient>
    <linearGradient id="as" x1="-1294.49" y1="1584.63" x2="-1292.91" y2="1583.06" gradientTransform="matrix(-69.61, -7.41, -5.61, 52.7, -81125.33, -92940.95)" gradientUnits="userSpaceOnUse">
      <stop offset="0" stop-color="#eaeaea"/>
      <stop offset="1" stop-color="#e8e8e8"/>
    </linearGradient>
    <linearGradient id="at" x1="-1297.01" y1="1582.91" x2="-1295.45" y2="1581.35" gradientTransform="matrix(-27.84, -2.97, -7.2, 67.62, -24452.27, -110784.16)" gradientUnits="userSpaceOnUse">
      <stop offset="0" stop-color="#cecece"/>
      <stop offset="1" stop-color="#cecece"/>
    </linearGradient>
    <linearGradient id="au" x1="-1295.3" y1="1580.54" x2="-1294.48" y2="1579.71" gradientTransform="matrix(-74.58, -7.94, -4.13, 38.78, -89836.51, -71483.2)" gradientUnits="userSpaceOnUse">
      <stop offset="0" stop-color="#f5f5f5"/>
      <stop offset="1" stop-color="#f2f2f2"/>
    </linearGradient>
    <linearGradient id="av" x1="-1295.7" y1="1581.82" x2="-1294.15" y2="1580.27" gradientTransform="matrix(-63.64, -6.78, -4.87, 45.74, -74507.78, -81008.3)" gradientUnits="userSpaceOnUse">
      <stop offset="0" stop-color="#f0f0f0"/>
      <stop offset="1" stop-color="#d6d6d6"/>
    </linearGradient>
    <linearGradient id="aw" x1="-1295.31" y1="1583.39" x2="-1293.74" y2="1581.82" gradientTransform="matrix(-46.74, -4.98, -4.87, 45.74, -52675.48, -78682.82)" gradientUnits="userSpaceOnUse">
      <stop offset="0" stop-color="#b6b6b6"/>
      <stop offset="1" stop-color="#e3e3e3"/>
    </linearGradient>
    <linearGradient id="ax" x1="-1294.68" y1="1583.54" x2="-1293.1" y2="1581.97" gradientTransform="matrix(-41.76, -4.45, -3.71, 34.8, -48088.07, -60660.72)" gradientUnits="userSpaceOnUse">
      <stop offset="0" stop-color="#ccc"/>
      <stop offset="1" stop-color="#dedede"/>
    </linearGradient>
    <linearGradient id="ay" x1="-1294.86" y1="1582.15" x2="-1293.29" y2="1580.58" gradientTransform="matrix(-55.69, -5.93, -2.01, 18.89, -68802.71, -37349.95)" gradientUnits="userSpaceOnUse">
      <stop offset="0" stop-color="#e5e5e5"/>
      <stop offset="1" stop-color="#e7e7e7"/>
    </linearGradient>
    <linearGradient id="az" x1="-1296.83" y1="1580.01" x2="-1295.25" y2="1578.44" gradientTransform="matrix(-51.71, -5.51, -3.07, 28.84, -61847.12, -52643.76)" xlink:href="#s"/>
    <linearGradient id="ba" x1="-1296.12" y1="1582.89" x2="-1294.54" y2="1581.31" gradientTransform="matrix(-63.64, -6.78, -4.02, 37.79, -75778.47, -68502.15)" gradientUnits="userSpaceOnUse">
      <stop offset="0" stop-color="#c6c6c6"/>
      <stop offset="1" stop-color="#d8d8d8"/>
    </linearGradient>
    <linearGradient id="bb" x1="-1295.54" y1="1579.16" x2="-1293.94" y2="1577.55" gradientTransform="matrix(-126.29, -13.45, -1.48, 13.92, -160930.47, -39338.71)" gradientUnits="userSpaceOnUse">
      <stop offset="0" stop-color="#d6d6d6"/>
      <stop offset="1" stop-color="#f2f2f2"/>
    </linearGradient>
    <linearGradient id="bc" x1="-1296.18" y1="1581.86" x2="-1294.6" y2="1580.28" gradientTransform="matrix(-41.76, -4.45, -2.86, 26.85, -49317.28, -48147.29)" gradientUnits="userSpaceOnUse">
      <stop offset="0" stop-color="#cecece"/>
      <stop offset="1" stop-color="#dedede"/>
    </linearGradient>
    <linearGradient id="bd" x1="-1295.57" y1="1582.32" x2="-1293.99" y2="1580.74" gradientTransform="matrix(-66.62, -7.09, -3.49, 32.81, -80540.21, -61035.89)" gradientUnits="userSpaceOnUse">
      <stop offset="0" stop-color="#e6e6e6"/>
      <stop offset="1" stop-color="#f5f5f5"/>
    </linearGradient>
  </defs>
  <g class="b">
    <g class="c">
      <g>
        <g class="d">
          <polygon class="e" points="196.63 64.01 152.5 95.34 122.95 67.31 196.63 64.01"/>
        </g>
        <g class="d">
          <polygon class="f" points="107.17 80.41 53.52 116.63 7.17 123.18 107.17 80.41"/>
        </g>
        <g class="d">
          <polygon class="g" points="48.62 103.71 59.91 153.23 2.27 110.25 48.62 103.71"/>
        </g>
        <g class="d">
          <polygon class="h" points="0 63.09 5.85 50.19 0 50.23 0 63.09"/>
        </g>
        <g class="d">
          <polygon class="i" points="38.59 18.93 16.47 73.52 44.64 98.8 38.59 18.93"/>
        </g>
        <g class="d">
          <polygon class="j" points="0 43.78 23.22 21.12 0 0.27 0 43.78"/>
        </g>
        <g class="d">
          <polygon class="k" points="0 41.15 23.89 7.29 0 30.61 0 41.15"/>
        </g>
        <g class="d">
          <polygon class="l" points="209.19 50.44 208.6 62.84 202.25 33.26 209.19 50.44"/>
        </g>
        <g class="d">
          <polygon class="m" points="198.13 64.84 124.46 68.14 191.78 35.26 198.13 64.84"/>
        </g>
        <g class="d">
          <polygon class="n" points="112.22 75.96 12.22 118.73 179.54 43.08 112.22 75.96"/>
        </g>
        <g class="d">
          <polygon class="o" points="218.2 46.33 217.6 58.74 275.4 30.75 218.2 46.33"/>
        </g>
        <g class="d">
          <polygon class="p" points="288 57.16 288 33.84 273.21 39.57 288 57.16"/>
        </g>
        <g class="d">
          <polygon class="q" points="210.79 32.65 217.75 49.82 249.61 21.33 210.79 32.65"/>
        </g>
        <g class="d">
          <polygon class="r" points="277.38 31.41 220.17 47 252.03 18.51 277.38 31.41"/>
        </g>
        <g class="d">
          <polygon class="s" points="288 29.52 288 12.79 263.95 17.28 288 29.52"/>
        </g>
        <g class="d">
          <polygon class="t" points="0 175.79 57.05 152.9 0 110.36 0 175.79"/>
        </g>
        <g class="d">
          <polygon class="u" points="0 103.92 24.27 122.55 46.39 67.96 0 86.57 0 103.92"/>
        </g>
        <g class="d">
          <polygon class="v" points="0 133.29 16.48 133.16 0 120.52 0 133.29"/>
        </g>
        <g class="d">
          <polygon class="w" points="141.02 89.43 111.47 61.41 120.9 137.81 141.02 89.43"/>
        </g>
        <g class="d">
          <polygon class="x" points="153.81 62.48 52.9 136.26 98.65 47.05 153.81 62.48"/>
        </g>
        <g class="d">
          <polygon class="y" points="107.22 60.34 53.58 96.56 116.66 136.74 107.22 60.34"/>
        </g>
        <g class="d">
          <polygon class="z" points="50.52 91.32 61.8 140.84 113.59 131.49 50.52 91.32"/>
        </g>
        <g class="d">
          <polygon class="aa" points="44.77 49.82 50.81 129.69 96.56 40.47 44.77 49.82"/>
        </g>
        <g class="d">
          <polygon class="ab" points="190.08 44.77 145.96 76.1 212.42 112.8 190.08 44.77"/>
        </g>
        <g class="d">
          <polygon class="ac" points="139.4 68.9 119.28 117.28 205.86 105.61 139.4 68.9"/>
        </g>
        <g class="d">
          <polygon class="ad" points="169.99 114.27 114.83 98.83 201.41 87.16 169.99 114.27"/>
        </g>
        <g class="d">
          <polygon class="ae" points="139.72 2.61 38.81 76.39 60.2 108.61 139.72 2.61"/>
        </g>
        <g class="d">
          <polygon class="af" points="0 57.51 42.35 32.52 20.96 0.3 0 29.99 0 57.51"/>
        </g>
        <g class="d">
          <polygon class="ag" points="288 60.2 263.81 31.42 278.09 117.43 288 101.04 288 60.2"/>
        </g>
        <g class="d">
          <polygon class="ah" points="260.08 23.75 202.28 51.74 274.35 109.76 260.08 23.75"/>
        </g>
      </g>
      <g>
        <g class="d">
          <polygon class="ai" points="239.41 47.99 191.6 95.91 138.43 75.42 239.41 47.99"/>
        </g>
        <g class="d">
          <polygon class="aj" points="195.53 76.83 142.45 116.09 142.36 56.34 195.53 76.83"/>
        </g>
        <g class="d">
          <polygon class="ak" points="228.92 75.18 127.93 102.61 132.59 11.11 228.92 75.18"/>
        </g>
        <g class="d">
          <polygon class="al" points="134.05 144.6 133.96 84.85 115.17 103.74 134.05 144.6"/>
        </g>
        <g class="d">
          <polygon class="am" points="132.96 152.54 114.08 111.68 59.87 162.11 132.96 152.54"/>
        </g>
        <g class="d">
          <polygon class="an" points="59.77 226.21 58.39 179.24 9.9 188.33 59.77 226.21"/>
        </g>
        <g class="d">
          <polygon class="ao" points="61.84 219.83 31.46 247.1 11.97 181.95 61.84 219.83"/>
        </g>
        <g class="d">
          <polygon class="ap" points="0 279.71 30.73 253.6 11.23 188.46 0 250.61 0 279.71"/>
        </g>
        <g class="d">
          <polygon class="aq" points="107.56 140.79 53.35 191.22 3.94 103.35 107.56 140.79"/>
        </g>
        <g class="d">
          <polygon class="ar" points="52.29 199.69 3.8 208.79 2.87 111.82 52.29 199.69"/>
        </g>
        <g class="d">
          <polygon class="as" points="0 240.81 6.17 206.63 5.25 109.66 0 171.17 0 240.81"/>
        </g>
        <g class="d">
          <polygon class="at" points="118.84 141.82 123.5 50.32 8.47 64.88 118.84 141.82"/>
        </g>
        <g class="d">
          <polygon class="au" points="120.98 135.55 102.19 154.43 10.61 58.61 120.98 135.55"/>
        </g>
        <g class="d">
          <polygon class="av" points="0 121.26 101.79 158.04 10.21 62.22 0 111.71 0 121.26"/>
        </g>
        <g class="d">
          <polygon class="aw" points="265.21 0 217.39 47.92 252.7 108.38 265.21 0"/>
        </g>
        <g class="d">
          <polygon class="ax" points="271.41 70.19 261.28 53.98 157.88 105.36 271.41 70.19"/>
        </g>
        <g class="d">
          <polygon class="ay" points="256.34 64.79 167.95 43.58 152.93 116.17 256.34 64.79"/>
        </g>
        <g class="d">
          <polygon class="az" points="139.96 129.79 66.87 139.36 124.94 202.37 139.96 129.79"/>
        </g>
        <g class="d">
          <polygon class="ba" points="68.65 185.82 67.26 138.84 125.33 201.86 68.65 185.82"/>
        </g>
        <g class="d">
          <polygon class="bb" points="70.44 182.43 40.05 209.7 127.12 198.47 70.44 182.43"/>
        </g>
        <g class="d">
          <polygon class="bc" points="288 13.19 288 9.51 282.29 9.35 288 13.19"/>
        </g>
        <g class="d">
          <polygon class="bd" points="288 74.95 288 38.08 245.85 42.94 288 74.95"/>
        </g>
        <g class="d">
          <polygon class="be" points="288 43.73 133.91 36.72 228.53 57.01 288 50.15 288 43.73"/>
        </g>
        <g class="d">
          <polygon class="bf" points="288 60.95 247.52 30.21 249.23 73.99 288 75.11 288 60.95"/>
        </g>
        <g class="d">
          <polygon class="bg" points="224.31 86.52 127.98 22.45 222.6 42.73 224.31 86.52"/>
        </g>
      </g>
    </g>
  </g>
</svg>
